<svg width="280" height="420" viewBox="0 0 280 420" fill="none" xmlns="http://www.w3.org/2000/svg">
  <rect width="280" height="420" rx="28" fill="#4A2012"/>
  <rect x="10" y="10" width="260" height="400" rx="22" fill="url(#paint0_linear)" stroke="#E4C17A" stroke-width="2"/>
  <rect x="22" y="22" width="236" height="376" rx="18" stroke="#F1D596" stroke-opacity="0.8" stroke-width="2"/>
  <path d="M140 74L191 140L140 206L89 140L140 74Z" fill="#E7CC8D" fill-opacity="0.22"/>
  <path d="M140 214L191 280L140 346L89 280L140 214Z" fill="#E7CC8D" fill-opacity="0.22"/>
  <path d="M48 82C95 46 185 46 232 82" stroke="#F6DDA7" stroke-opacity="0.5" stroke-width="4" stroke-linecap="round"/>
  <path d="M48 338C95 374 185 374 232 338" stroke="#F6DDA7" stroke-opacity="0.5" stroke-width="4" stroke-linecap="round"/>
  <circle cx="140" cy="210" r="44" fill="#F4D9A0" fill-opacity="0.18" stroke="#F4D9A0" stroke-opacity="0.55" stroke-width="4"/>
  <path d="M140 182L147.865 202.135L169 210L147.865 217.865L140 238L132.135 217.865L111 210L132.135 202.135L140 182Z" fill="#F8E5BA"/>
  <defs>
    <linearGradient id="paint0_linear" x1="140" y1="10" x2="140" y2="410" gradientUnits="userSpaceOnUse">
      <stop stop-color="#6D2E1B"/>
      <stop offset="1" stop-color="#572113"/>
    </linearGradient>
  </defs>
</svg>
